<?xml version="1.0" encoding="UTF-8"?> <svg xmlns="http://www.w3.org/2000/svg" width="198" height="32" viewBox="0 0 198 32"><g fill="none" fill-rule="evenodd"><path d="M0 0H197V32H0z"></path><path fill="#766C60" d="M27.23 0c1.236 0 2.207.964 2.207 2.147v18.318c.002 3.711 3.007 6.716 6.718 6.716 1.237 0 2.21 1.017 2.21 2.21s-.973 2.165-2.21 2.165c-5.88 0-10.72-4.605-11.059-10.442-.016-.106-.033-.213-.033-.323V2.147C25.063.964 26.036 0 27.23 0zm108.874 0c1.236 0 2.208.964 2.208 2.147V3.85h5.236c1.183 0 2.147.972 2.147 2.165 0 1.237-.964 2.208-2.147 2.208h-5.236v12.242c.002 3.711 3.007 6.716 6.718 6.716 1.237 0 2.21 1.017 2.21 2.21s-.973 2.165-2.21 2.165c-5.881 0-10.72-4.605-11.059-10.442-.016-.106-.033-.213-.033-.323V2.147c0-1.183.972-2.147 2.166-2.147zM54.678 3.828c4.905 0 8.881 3.977 8.881 8.838 0 .089 0 .133-.044.176.033.066.041.108.043.162l.001 10.797c0 1.237-1.016 2.21-2.21 2.21-1.192 0-2.166-.973-2.166-2.21V12.666c0-2.475-2.03-4.463-4.505-4.463-2.476 0-4.508 1.988-4.508 4.463v11.135c0 1.237-.972 2.21-2.165 2.21s-2.21-.973-2.21-2.21V12.666c0-2.475-1.988-4.463-4.463-4.463-2.474 0-4.507 1.988-4.507 4.463v9.365c0 1.237-.972 2.21-2.165 2.21-1.238 0-2.209-.973-2.209-2.21v-9.365c0-4.86 3.977-8.838 8.88-8.838 2.652 0 5.038 1.15 6.674 3.05 1.634-1.9 4.02-3.05 6.673-3.05zm40.319 0c6.096 0 11.09 4.95 11.09 11.092v8.807c0 1.049-.7 2.007-1.724 2.23-1.404.307-2.65-.755-2.65-2.156v-8.683c0-3.691-3.018-6.911-6.71-6.915-1.045-.001-2.034.237-2.916.662-.993.479-2.207.156-2.73-.814l-.022-.039c-.632-1.163-.178-2.603 1.022-3.16 1.413-.656 2.985-1.024 4.64-1.024zm61.947-.022c1.194 0 2.166.972 2.166 2.165v11.135c-.044 4.906-4.022 8.882-8.971 8.882-4.905 0-8.882-3.976-8.926-8.882V13.29c0-1.193.972-2.165 2.165-2.165 1.238 0 2.21.972 2.21 2.165v3.73c0 2.517 2.032 4.594 4.55 4.594 2.564 0 4.598-2.077 4.598-4.595V5.971c0-1.193.97-2.165 2.208-2.165zm16.157 0c1.238 0 2.21.972 2.21 2.165 0 1.194-.972 2.21-2.21 2.21-3.71 0-6.716 3.004-6.716 6.716v8.883c0 1.192-.971 2.208-2.165 2.208-1.237 0-2.21-1.016-2.21-2.208v-8.883c0-6.142 4.993-11.091 11.091-11.091zm-52.933.044c6.23 0 10.87 4.95 10.87 11.18v8.66c0 1.282-.928 2.21-2.21 2.21-.884 0-2.121-.928-2.121-2.21-1.9 1.591-4.021 2.21-6.54 2.21-6.231 0-11.18-4.639-11.18-10.87 0-6.23 4.949-11.18 11.18-11.18zm66.324 0c6.23 0 10.87 4.95 10.87 11.18v8.66c0 1.282-.927 2.21-2.209 2.21-.884 0-2.122-.928-2.122-2.21-1.9 1.591-4.02 2.21-6.539 2.21-6.23 0-11.18-4.639-11.18-10.87 0-6.23 4.95-11.18 11.18-11.18zM11.18 3.828c6.23 0 10.87 4.95 10.87 11.18v8.66c0 1.282-.927 2.21-2.208 2.21-.884 0-2.122-.928-2.122-2.21-1.9 1.592-4.02 2.21-6.54 2.21-6.23 0-11.18-4.64-11.18-10.87 0-6.23 4.95-11.18 11.18-11.18zm66.46 0c6.23 0 10.87 4.95 10.87 11.18v8.66c0 1.282-.928 2.21-2.21 2.21-.883 0-2.12-.928-2.12-2.21-1.9 1.592-4.022 2.21-6.54 2.21-6.231 0-11.18-4.64-11.18-10.87 0-6.23 4.949-11.18 11.18-11.18zm42.528 4.352c-3.713 0-6.85 3.138-6.85 6.85 0 3.712 3.137 6.54 6.85 6.54 3.711 0 6.539-2.828 6.539-6.54s-2.828-6.85-6.54-6.85zm66.324 0c-3.712 0-6.85 3.138-6.85 6.85 0 3.712 3.138 6.54 6.85 6.54 3.711 0 6.539-2.828 6.539-6.54s-2.828-6.85-6.539-6.85zM11.18 8.16c-3.711 0-6.849 3.137-6.849 6.849s3.138 6.539 6.85 6.539c3.71 0 6.539-2.827 6.539-6.54 0-3.71-2.828-6.848-6.54-6.848zm66.46 0c-3.713 0-6.85 3.137-6.85 6.849s3.137 6.539 6.85 6.539c3.712 0 6.54-2.827 6.54-6.54 0-3.71-2.828-6.848-6.54-6.848z"></path></g></svg> 